<svg id="Слой_1" data-name="Слой 1" xmlns="http://www.w3.org/2000/svg" viewBox="0 0 489.63 660.88"><defs><style>.cls-1{fill:#f39200;}.cls-2{fill:#f9b233;}.cls-3{fill:#fedba6;}</style></defs><title>шар</title><path class="cls-1" d="M542.45,403.59c0-172.7-109.55-312.71-244.69-312.71S53.07,230.89,53.07,403.59c0,163.74,98.49,298.07,223.88,311.57-3.74,3.69-6.81,7.35-8,8.82a124.22,124.22,0,0,0-16.17,25.33c9.79.92,20.1,1.58,30.89,1.88a475.48,475.48,0,0,0,56.4-1.75,130.57,130.57,0,0,0-24.26-34C442.51,703.66,542.45,568.54,542.45,403.59Z" transform="translate(-52.82 -90.5)"/><path class="cls-2" d="M499.43,405.65C504.58,272.56,420.61,100,297.76,90.88,170.17,81.38,46.54,251.53,53.07,403.59c4.1,95.43,61.15,223.41,173,250.07,92.46,22,170.85-37.41,181.26-45.56C494.23,540.12,498.36,433.36,499.43,405.65Z" transform="translate(-52.82 -90.5)"/><path class="cls-3" d="M308.42,176.08c10.6,1.73,52.13,9.78,81.88,47.44,40.54,51.33,23.87,112.93,22,119.29A240.47,240.47,0,0,0,308.42,176.08Z" transform="translate(-52.82 -90.5)"/></svg>