<svg id="Слой_1" data-name="Слой 1" xmlns="http://www.w3.org/2000/svg" viewBox="0 0 534.97 766.28"><defs><style>.cls-1{fill:#fedba6;}.cls-2{fill:#6a832a;}.cls-3{fill:#8eb229;}.cls-4{fill:#becc3e;}</style></defs><title>цифра</title><path class="cls-1" d="M338.11,105.58c12.26,2,60.3,11.31,94.71,54.87,46.88,59.36,27.6,130.61,25.48,138A278.22,278.22,0,0,0,338.11,105.58Z" transform="translate(-30.15 -37.8)"/><path class="cls-2" d="M565.12,420.46c0-192.6-71.86-348.72-248.41-348.72C141.22,71.74,68.3,227.86,68.3,420.46c0,183.45,79,333.82,225.94,347.68-17.31,12-21,33.39-21.35,36l89.82-.92c-.31-1.92-4.13-23.28-21-35.25C490.18,752.91,565.12,603.09,565.12,420.46ZM316.71,622.9c-82.62,0-122.49-88.26-122.49-197.14s36-197.15,122.49-197.15c87.06,0,122.5,88.27,122.5,197.15S398.83,622.9,316.71,622.9Z" transform="translate(-30.15 -37.8)"/><path class="cls-3" d="M278.56,37.8C103.07,37.8,30.15,193.93,30.15,386.53s87,348.72,248.41,348.72C443.64,735.25,527,579.12,527,386.53S455.11,37.8,278.56,37.8Zm0,551.17c-82.62,0-122.49-88.27-122.49-197.15s36-197.14,122.49-197.14c87.06,0,122.5,88.26,122.5,197.14S360.68,589,278.56,589Z" transform="translate(-30.15 -37.8)"/><path class="cls-4" d="M268.49,195.1c41.43-6.6,66.48,3.6,79.33,11,63.93,36.57,87,152.07,40.64,282.21C406.2,426.13,403,375.38,398.75,345.84c-6.21-43.1-12.78-88.64-50.57-120.4C319.72,201.52,286.58,196.37,268.49,195.1Z" transform="translate(-30.15 -37.8)"/><path class="cls-4" d="M268.49,735.25a209.36,209.36,0,0,1-75.41-17.44,224.38,224.38,0,0,1-55.81-36.26c-61.78-54.46-82-133.14-91.36-169.84a467.41,467.41,0,0,1-13-152A537.61,537.61,0,0,0,78.24,532c14.1,31.11,33.74,73.53,74.64,117.81A386,386,0,0,0,268.49,735.25Z" transform="translate(-30.15 -37.8)"/></svg>