<svg id="Слой_1" data-name="Слой 1" xmlns="http://www.w3.org/2000/svg" viewBox="0 0 931.86 878.33"><defs><style>.cls-1{fill:#f8c7da;}.cls-2{fill:#ec80b0;}.cls-3{fill:#d42b7c;}.cls-4{fill:#1d1d1b;}.cls-5{fill:#36a9e1;}.cls-6{fill:#f8f5f6;}.cls-7{fill:#ebe8ea;}.cls-8{fill:#911349;}</style></defs><title>поні</title><path class="cls-1" d="M488.66,282.93c-31.72-101.33-47.58-152-88.21-170.18-84.2-37.69-224.08,67.17-231.7,143.18-4.46,44.42,4.47,75.1,4.47,75.1,8,27.54,18.58,36,13.9,50.89-8.19,26.07-50.71,32.26-48.42,47.22,1.19,7.73,13.21,12.05,13.67,25.41.11,3.27-.56,4.51.4,7.19,2.91,8.19,14.42,11.6,19.49,13.11,9.32,2.76,14.6,1.71,17.26,6.07,1.63,2.68.2,4,1.92,6.71,3,4.75,11.76,6.34,18.21,4.79,2.54-.6,5.06-1.79,8.95-1.27a16.31,16.31,0,0,1,4.48,1.27c.75.17,1.86.4,3.19.64,4.42.8,20.29,4.67,34.84-1,11.68-4.52,10.71-7.56,21.41-10.86,6.89-2.13,20.14-6.22,28.12.64,5.92,5.08,6.51,14.06,6.72,17.26a34.39,34.39,0,0,1-1.6,12.46c-2.85,9.83-2.32,18.7-1.28,36.43C316,574,326.66,595.28,331.1,604c11.36,22.21,19.51,25.52,26.21,35.89h0s2.58,4.82,4.78,9.49c.71,1.51,14.44,33.27,9.35,79.18,0,0-4.42,39.85-28,79.48-6.85,11.51-10.38,17.47-17.9,23.33-9.43,7.35-16.35,7.74-20.13,15.34a21.45,21.45,0,0,0-1.88,5.89A24.18,24.18,0,0,0,306.69,869c4.82,7.18,14.84,7.35,56.24,9,17.41.67,20.33,2.55,31.9,2.55,4.08,0,25.23,2.28,36.3-4.6,9.05-5.63,10.67-16.72,12.47-73.35,1.14-35.89,1.69-54.23.95-73.83-.88-23.57-2.7-43.28-4.31-57.52a162.16,162.16,0,0,0,57.37,5.27c29.92-2.72,44.89-12.86,56.48-4.07,7.83,5.92,8.57,18.81,10.07,44.58,1.62,27.84-1.7,48-3.59,57.53-6,30.46-15.19,42.24-21.74,48.65h0c-10.42,10.65-22,18.41-24.92,33.88-.94,5-1.95,10.34,1,14.7,6.5,9.75,24.19,2,57.69,3,30.84.85,37.47,8,47.46,1.2,3.13-2.13,11.56-9,15.34-47,2.27-22.86,1.25-40.69,0-57.29-5.11-68.17-11.64-85.73-2.88-117.93,3.06-11.22,3.79-8.85,8.63-25.17,6.28-21.11,14.83-49.89,12.47-79.9-1.38-17.51-4.46-57.46-36.44-81.17C578.73,439,531,455.7,526.69,457.27A1008.07,1008.07,0,0,0,488.66,282.93Z" transform="translate(-22.46 -35.18)"/><path class="cls-2" d="M403.88,426.51c4.22,2.29,2.23,19.22-5.6,31.14-14.66,22.33-51.12,29.13-92.18,20.48,14.38-.59,33.51-3.56,52.32-14.39C386,447.87,398.34,423.49,403.88,426.51Z" transform="translate(-22.46 -35.18)"/><path class="cls-3" d="M463.73,541.32c7.7,1.15,23,3.19,36.67-7,13.19-9.79,16.15-24.54,16.81-28.46A75.54,75.54,0,0,1,485.38,509a74.12,74.12,0,0,1-12.76-2.71c1.64.49,24,6.79,41.21-8.08,11.09-9.61,13.39-22.34,13.94-26.14a152.73,152.73,0,0,0,31.32-1c10.15-1.39,17.09-2.31,25.53-6.47a56.27,56.27,0,0,0,21.1-17c7.3-9.85,9-19.49,10.9-30.3a116.6,116.6,0,0,0,1-31c-.67-8.86-1.76-22-7.83-37.79A105.19,105.19,0,0,0,589,313.74a101.19,101.19,0,0,0-31-23.14,99.9,99.9,0,0,0-32.34-9.2A176.41,176.41,0,0,0,537,195.82a128.19,128.19,0,0,0-2.79-16.92c-6.77-27.5-20.57-32.8-35.71-63.52a56.78,56.78,0,0,0-9.11-13.9c-1.46-1.61-6.48-7-17.26-12.94-9.69-5.37-13.48-5.39-26.61-10.79-14.45-6-12.65-7.08-21.57-10.3-19.26-7-36.79-5-44.1-4.08A104.66,104.66,0,0,0,351.55,71c-14.14,6.69-17.46,13.34-25.41,13.18-11.19-.22-16-13.63-25.88-24.44C276,33.14,228.75,30.24,196.71,41.08c-12.23,4.14-35.79,12.11-44.58,32.36C146,87.57,151.28,98,141.34,110.11c-5.49,6.71-7.25,3.72-27.33,17.26-15.7,10.6-22.33,16.29-26.6,25.17-3.09,6.42-.75,11.62-5,15.1s-9.21,1.45-16.54,2.16c0,0-9.92.95-23.73,11.5-24.71,18.86-19.39,72.13-18.7,78.38,1.49,13.54,5,45.08,28.07,67.4C64.91,340.05,75,349.79,88.85,351c3.77.34,11.69.38,15.82,5.76,3.64,4.75,2.27,11,2.15,11.5-1.6,7.16-9,11.07-11.5,12.23-16.1,7.4-31.43-6.44-39.55.72-3.3,2.91-4.6,8.23-3.6,12.22,3.45,13.75,35.47,23.27,61.13,15.1,3.76-1.2,30.71-10.27,38.11-36.67.84-3,5.47-19.52-2.88-34.52-9.51-17.1-25.17-13-32.36-27.32-8.12-16.17-.34-45.72,20.8-54.92,13.9-6.06,27.83-.82,31.78.83a167.21,167.21,0,0,1,28.12-41.55c9.31-10.08,21.2-22.94,40.09-31.4,23.24-10.4,44.18-8.37,68.57-6a230.85,230.85,0,0,1,66.8,16.93c1.76-34.06,15.45-58.94,30.24-60.61,17.63-2,35.23,29.18,41.88,40.95,8.78,15.55,12.34,29.74,14.81,39.57a181,181,0,0,1,5.36,41.36c.13,10.5.17,18.28-2.95,28.14a69.44,69.44,0,0,1-11.19,21.32L435,308.34a57.47,57.47,0,0,0-28.29,15.34C398.51,332,391,346.46,393.26,363c3.53,26.29,28.84,37.32,30,37.81a69.16,69.16,0,0,0-23.8,5.81c-9.21,4.12-23.21,10.38-26.84,24-4,14.83,7.13,28.22,7.68,28.87,4.38,5.13,8.79,7.21,34.5,17.15,6.38,2.47,14,5.38,22.53,8.63-2.07,0-9.1.43-14.38,5.76-5.84,5.89-5.71,14-5.54,16.34C418.69,524.61,443.43,538.29,463.73,541.32Z" transform="translate(-22.46 -35.18)"/><path class="cls-3" d="M634.32,485.66a207.54,207.54,0,0,1,18.53,62.61c2.77-.48,31.28-5.22,37.63,5a261.66,261.66,0,0,0,11.24,73.63c-14.75,13.81-25.81,25.42-33.36,33.7a99.87,99.87,0,0,0-13.92,18.45,80.8,80.8,0,0,0-8.55,20,79.58,79.58,0,0,0-.34,38.46c1.66,7.51,3,13.66,7.49,20.43,3.69,5.57,6.43,6.93,11.74,15,4.44,6.8,4.08,8.33,7,12.15s8,7.75,19.14,12.59c3.92,7.14-8.87,16.86-13.9,31.17-1.89,7.55-4.27,21.94,1.66,37.1,9.21,23.59,33.19,33.49,46.83,39,34.56,14,67.06,7.32,81.71,3.24A91.39,91.39,0,0,1,788,903.19a97.64,97.64,0,0,1-24-13.79c-11.15-8.56-23-17.68-24.85-31.66-.45-3.41-1-7.32,1.17-11,4.42-7.73,14-4,24.28-11.92,8.18-6.37,5.41-11.41,14.29-17.37,1.64-1.09,4.15-2.54,18.25-6.4,8-2.19,14.67-3.76,19.29-4.8A78.77,78.77,0,0,0,841,794.77c4.82-3.38,17.84-12.49,24.5-28.13,11.06-26-3.13-52-5.27-55.79,5.25.06,34.13.13,51.93-11a130.92,130.92,0,0,0,13.43-9.93A92.16,92.16,0,0,0,939.77,676a67.53,67.53,0,0,0,10.72-18.13c1.89-4.94,3.88-12.21,3.83-24.51-.06-14.85-.13-32.22-10.21-48.26-16.36-26-47.74-30.47-53.11-31.15a100.54,100.54,0,0,0,7.66-58.21c-1-6-5.65-29.82-23-48.51-34-36.63-93.22-28.13-118.47-24.51C695.36,431.55,653.34,467,634.32,485.66Z" transform="translate(-22.46 -35.18)"/><path class="cls-4" d="M342.64,409c1.68,3.07.6,6.67,0,8.27a11.13,11.13,0,0,0-3.71-7.49c-.34-.29-4.14-3.44-8.51-2.37A8.24,8.24,0,0,0,327,409.2a5.82,5.82,0,0,0-2,3.18c-.43,2.31,1.28,3.14,2.81,7.76a16.18,16.18,0,0,1,1,5.41,14.14,14.14,0,0,1-.76,4.55c0-.27-.19-6.2-4.07-8.39a10.7,10.7,0,0,0-4.36-1.18,11,11,0,0,0-2.93.22c-14.58,2.87-28.2,2.08-38.83-10.14q-1.89-3.6-3.77-7.21c-3.65-16.38-3.53-32.54,1.84-48.66,3.12-9.36,16.05-20.84,25.14-21.3-3.72,13.86,2.05,24.49,11.68,33.65,8.67,8.24,18,6.69,27.38,1.24.1,2.25.3,4.49.3,6.73,0,6.16-.22,7.75,1.07,9.41s2.24.8,5.87,3.22a14.3,14.3,0,0,1,5.51,5.7A12.68,12.68,0,0,1,354,398.3a16,16,0,0,1-.84,6.11c0-.43.57-6.4-4-9.94-2.94-2.31-7.49-3.17-10.08-1.54a18.12,18.12,0,0,0-2,1.6c-1.65,1.45-2.5,2.16-2.94,3.23a5.11,5.11,0,0,0-.24,3.6c.65,1.7,2.18,1.77,4.92,3.83A12.81,12.81,0,0,1,342.64,409Zm-39.47-24.26c-1.19-5-3.06-10-9.37-10.2-4.15-.09-4.88,3.65-4.5,7.06.59,5.25,3.15,9.36,8.75,9.94C302.36,392,303.08,388.48,303.17,384.71Z" transform="translate(-22.46 -35.18)"/><path class="cls-5" d="M301,333.44c-9.09.46-22,11.94-25.14,21.3-5.37,16.12-5.49,32.28-1.84,48.66-2.1,0-3.35,1.37-4.89,2.62-8.53,6.93-12.63,5.45-14.24-5.66-2.3-15.92-3.46-31.68,1.24-47.74,8.39-28.65,35-57.47,69.74-42.83a22.88,22.88,0,0,1,4.71,3.58,22.11,22.11,0,0,1,3.91,5.19c.54,1,.3.78,1.68,3.92,1.2,2.73,1.48,3.14,2.16,4.79.15.38.88,2.2,1.6,4.64a47.06,47.06,0,0,1,1.73,9c.1,1.23.16,3.56.16,4.46h0c0,.1.09,2.31.09,2.55,0,0,0,.92,0,1.9a104.92,104.92,0,0,1-.42,10.65c-1.65-9.92-4.73-19.12-11.22-27.17C321.32,322.14,309.3,322,301,333.44Z" transform="translate(-22.46 -35.18)"/><path class="cls-4" d="M345.22,340.24,342,350.76a67.45,67.45,0,0,0-1.16-12.14,58.78,58.78,0,0,0-3.64-12.47,54.82,54.82,0,0,0-11.26-16.36c-4.32-4.38-16.32-16.44-34.2-17.05a44.3,44.3,0,0,0-23.14,6c-14.88,8.26-23.93,21.34-29.71,37-7.13,19.3-6.79,39.35-6,59.45-11.27-39.07-2.67-72.68,27.54-100.37,16.73-9.76,34.11-13.63,52.59-5.23,3.93,1.78,5,0,6.24-3.12,2.66-6.89,1.35-13.81-.12-22,6,6.27,7.29,11.83,7.62,14.53a44,44,0,0,1-.28,11.5c-.64,3.66-1.4,4.7-.8,6.87,0,.14.08.23.13.38.92,2.68,2.44,4.62,5,7.45,2.19,2.43,3.29,3.65,3.75,3.75,3.49.79,7.55-5.17,9-7.35,2.47-3.61,6.12-10.33,7.08-20.84,2.42,12.2,0,19.27-1.12,22a61.45,61.45,0,0,1-4.92,9.41c-2.94,4.38-4.18,4.62-4.39,6.91-.39,4.1,3.11,8.25,4.06,10.91a4.21,4.21,0,0,0,.8,1.38,4,4,0,0,0,.88.73c3.15,2,8.47-1.47,9.84-2.35a22.81,22.81,0,0,0,8.74-11.63,18.87,18.87,0,0,1-1.75,12.05C357.65,339.79,345.72,340.23,345.22,340.24Z" transform="translate(-22.46 -35.18)"/><path class="cls-6" d="M301,333.44c8.28-11.43,20.3-11.3,29.28-.16,6.49,8.05,9.57,17.25,11.22,27.17-.49,2.63-1,5.26-1.44,7.88-9.4,5.45-18.71,7-27.38-1.24C303.07,357.93,297.3,347.3,301,333.44Z" transform="translate(-22.46 -35.18)"/><path class="cls-6" d="M232.85,395.18c-.8-20.1-1.14-40.15,6-59.45,3.4-9.21,11.36-26.69,29.71-37,4.61-2.58,12.61-6.94,23.46-6.7,19.18.41,31.5,14.85,33.88,17.75-34.7-14.64-61.35,14.18-69.74,42.83-4.7,16.06-3.54,31.82-1.24,47.74,1.61,11.11,5.71,12.59,14.24,5.66,1.54-1.25,2.79-2.59,4.89-2.62,1.25,2.41,2.51,4.81,3.77,7.22-7.32,2.62-11.76,7.57-11.27,11.77s5.95,6.66,8.93,8c11.18,4.92,22.82,1.6,28.52-.54a36.59,36.59,0,0,1-13.82,6.35,38.25,38.25,0,0,1-8,.84c-3.39,0-22.62.05-35.45-13.81-5.75-6.2-8.67-13.53-11-19.31A79.78,79.78,0,0,1,232.85,395.18Z" transform="translate(-22.46 -35.18)"/><path class="cls-5" d="M291.29,434.84c-5.73-.41-11.27-.33-16.85-3.34-4.71-2.54-10-6.59-8.79-10,1.61-4.61,5.68-10,12.16-10.87,10.63,12.21,24.25,13,38.83,10.13C308.73,426.41,301.8,433.85,291.29,434.84Z" transform="translate(-22.46 -35.18)"/><path class="cls-7" d="M303.17,384.71c-.09,3.77-.81,7.24-5.12,6.8-5.6-.58-8.16-4.69-8.75-9.94-.38-3.41.35-7.15,4.5-7.06C300.11,374.66,302,379.72,303.17,384.71Z" transform="translate(-22.46 -35.18)"/><path class="cls-8" d="M528.77,251.51c-4.8,14-9,27.9-20.31,41.35,104.44-18.33,139.62,185.21,16.65,175.26-1.92,31.67-26.15,38.59-56.59,36.08a49.56,49.56,0,0,0,20.86,7.08,50.1,50.1,0,0,0,27.83-5.37,54.63,54.63,0,0,1-10,18.13A49.8,49.8,0,0,1,492.7,536.3c-13.46,7.24-27.14,5.08-32.93,4.08-16.09-2.76-38.91-13.38-41.62-29.87-1.36-8.28,1.66-16.47,1.66-16.47a33.1,33.1,0,0,1,5.78-9.9,120.69,120.69,0,0,1-26.85-9.63c-9.39-4.7-14.75-7.46-19.4-13.53a37.34,37.34,0,0,1-7.53-24.55c1.39-16.9,19.95-33,46.26-38.61C395,386.51,385.79,358.18,394.23,335a68.08,68.08,0,0,1,28.85-25.42,67.16,67.16,0,0,1,28.77-6.09,90.9,90.9,0,0,0-21.19,13.27c-3.9,3.29-28.43,23.91-26.94,42.68,1.52,19.3,30.76,39.38,72.31,40-15.54,7.11-24.07,4.09-41.62,3,12.51,11.35,38.28,13.43,50.89,10.39a45.14,45.14,0,0,1-16.08,6C447.47,422.36,438.49,406.26,419,408c-19.3,1.77-37.53,20-35.33,30.79.62,3,2.39,5.2,6.95,8.29a67.18,67.18,0,0,0,31.27,11.31A66.15,66.15,0,0,0,444,456.72L419.85,436.3c17.43.4,38.55,4.19,57.63,17.21q2.41,1.65,4.64,3.39c105.24,39.65,144.43-118.39,56.79-154.29,12.54,17,26.12,51.3,1.24,63.62a46.38,46.38,0,0,0,7.19-25.08c0-3-.63-22.56-17-34.72-19.08-14.16-41.67-5.1-42.76-4.64,7.19-8.31,29.6-36.29,31.68-78.77a131,131,0,0,0-20.55-76.6,53.65,53.65,0,0,1,.65,27.08c-6.1-82.5-147.39-133-157.21-24-22-44-54.56-92.33-109.38-93.47a80,80,0,0,1,36.46,17C234,54.63,197,58.45,182.06,76.64c-9.72,11.83-13.57,34-13.54,42.46a94,94,0,0,0,1.12,13.2c.52,3.11,1,5.12,1.84,8.5,1,4.06,2.31,9.84,3.78,17-24.24-16.48-45-24.07-52.68-22.17a24.53,24.53,0,0,0-9.92,5,20.33,20.33,0,0,0-4.72,6.64,83,83,0,0,1,11.1,3.57c7.45,3,27.17,10.93,28.83,24.07.2,1.62.55,6.63-2.66,10.27-2.76,3.14-6.74,3.66-8.51,3.87-11.15,1.31-20.45-8.56-22.89-11.14a42.39,42.39,0,0,1-10.58-21.19,105.22,105.22,0,0,1-5.63,11.36c-4.55,7.89-7.23,10.1-8.13,10.81a28,28,0,0,1-7.07,3.87c-6.14,2.54-9.73,2.29-13.53,3.28-6.11,1.57-9.76,5.54-14.9,11.13-14,15.27-18.25,42.11-18.81,45.92a64.06,64.06,0,0,1,4-33.89A62.88,62.88,0,0,1,46.06,197c2.31-3.22,6.81-9.49,13.87-14.09,13.05-8.5,21.85-2.82,28.58-11.3,1.7-2.14,3.09-5.36,5.87-11.78,2.66-6.13,2.8-7.83,4.75-11.72a43.24,43.24,0,0,1,9.24-12.6c9.92-8.86,23.15-8.41,25.84-8.3,15.14.61,25.19,9.74,28,12.51C137.53,19,301.73,28.47,334.91,118.45,413.85,4.14,551.41,148.31,528.77,251.51Zm-11.3,217.77a50.41,50.41,0,0,1-13.79,5.1c-3.62.77-7.92,1.67-13,.9-8.4-1.28-14.18-6.39-17-9.32-4.33,2.51-12,7-21.83,12.51-15.12,8.57-19.43,10.46-22.6,16.13-.23.41-5.48,10.14-2.16,20,5.75,17.1,34.44,26,55.14,17.61,10.34-4.19,16.61-11.86,19.79-16.55a47.69,47.69,0,0,1-49.15-21.75,58.36,58.36,0,0,0,9.7,3.32,59,59,0,0,0,7.33,1.34c1.69.18,8.34.4,19.71-2.21,7.17-1.65,12.39-2.85,17.26-6.79C514.53,483.4,516.74,474.19,517.47,469.28ZM141.38,180.38c.34-.66,1.13-2.63-.51-6.51-5-11.89-22.51-16.87-24.76-17.49a53.1,53.1,0,0,0-6-1.27,37.14,37.14,0,0,0,1.26,5.65,38.55,38.55,0,0,0,8.95,14.9,27.33,27.33,0,0,0,9.7,7c3.8,1.54,5.89,1.22,7,.89A6.88,6.88,0,0,0,141.38,180.38Zm319,283.83a126.77,126.77,0,0,1-46.3,2.39l14,7.14a30.43,30.43,0,0,0,10.63,1.2C450.39,474.16,458.08,466.63,460.36,464.21Z" transform="translate(-22.46 -35.18)"/><path class="cls-8" d="M659.83,527.21c-3.5.3-5.54,8.11-8.87,3.64-3.46-4.63,3.46-6.17,6.07-8.89.86-.9,1.88-1.65,2.82-2.47l9.73-5.88,2.17-1.78c13.65-5.5,27.27-11.07,41-16.43,2.32-.91,5-.92,7.5-1.34l.95.16,1-.06L726,494c4.61.79,9.59-.74,15.08,2.22-8.09,6.71-17.44,5.59-25.74,7.59C695.52,508.58,676.34,514.66,659.83,527.21Z" transform="translate(-22.46 -35.18)"/><path class="cls-8" d="M643.44,508.72c2-8.21,10.07-9.36,15.81-12.88,26.6-16.3,54.44-29.68,85.68-34.58,6.55-1,13-1.25,19.61.85-43.34,6.24-82.61,22-117.84,47.65a6,6,0,0,0-1.12-.16l-2.18-.86Z" transform="translate(-22.46 -35.18)"/><path class="cls-8" d="M845.85,778.59l-2.16,3.59-.09.11c-17.24,25.72-49.86,21.79-73,33.85C763.08,840.28,717,835,738.73,863.49c10.28,18.79,23.45,28.44,43.48,37.27-35.8,7.46-72.53-6.51-92.93-36.38-22.65-37.42-1.81-43.51,22.33-59,18.45,6.93,13.88,6.5-2,10.23-42.19,29.87,17.47,90.24,54.68,81.45-20.62-11.9-35.1-28.54-41.58-51.9-2.05-7.41,1.23-8.13,7-8.52,9.23,2.29,45.67-20.25,30.36-25.39-60.39-13.07-7.74-65,16.09-18.91,15.4,36.28,108.69-42.53,69.38-84.24,36.89-7.81,78-30.94,89.52-69.86,17-54.73-42.83-68.33-83.55-61.09C921.19,510.25,869.79,435,782.6,435.44c-55.26-1.56-105.85,28.17-146.51,57.43,30.38-42.42,98.12-65.1,151.7-66.62,72.6-6.54,139.47,65.51,87.72,131.41-9.36,7.37-4.73,13.19,6,10.35,53.75-4.41,81.36,54.31,54.65,97.43-17.71,24.66-53.1,36.79-82.77,43.57C872.23,731.67,856.23,757.07,845.85,778.59Zm-86,25.12c20.44,3.13,4.24-24.42-7.21-24.12C727,776.79,741.56,806.86,759.86,803.71Z" transform="translate(-22.46 -35.18)"/><path class="cls-8" d="M779.81,511.61c-42.53,22-72.47,72.46-51.27,119.6,1.85,4.9,4.82,4.37,9.21,3.62,22-3.78,42.27,1.09,60.54,13.91,25.37,17.44,2.51,52.5-24.27,36.2-20.59-6.76-31.35-33.58-50.2-38.71C677,657.51,636.69,748,695.57,763.43c20.28,3.18,44.87,2.52,54.13-19,13.52-13.52-13.19-41,.79-39.64,87.09,47.13,205-85.39,62.41-105.5-6.72.93-6.75-6.48-.09-5.79,63.28-19.2,68.75-104.76,1.26-125.78,72.31,9.16,64.22,100.09,11.57,128.27,129.67,32.21,18.06,151.19-70,117.27,15.83,44.65-37.21,69.2-73.18,51.94,6.93,15.66,27,26.57,39.32,40.14-22.89-4.63-44.17-22.62-57.68-41.9-16.64-12.32-10.68-53.72-2.68-70.84,12.19-42.79,74.39-47.27,57.48-67.35C683.7,535.52,789.61,513,770.28,498.38,785.82,499,804.54,502.65,779.81,511.61ZM755.64,640.32c-46-4.49,12.69,40.14,31,38.86C825.59,675,778.19,633.25,755.64,640.32Z" transform="translate(-22.46 -35.18)"/><path class="cls-2" d="M429.87,187.21c-1.95.16,2.89,20.66-5.11,49.22-8.08,28.8-23.28,44.63-21.42,46s21-13.13,29.41-36.43C443.26,216.82,432.23,187,429.87,187.21Z" transform="translate(-22.46 -35.18)"/><path class="cls-2" d="M182.33,433a17.68,17.68,0,0,1-3.12,6.47,17.93,17.93,0,0,1-8.39,6,8.79,8.79,0,0,0,10.79,0C185.07,442.57,185.62,436.89,182.33,433Z" transform="translate(-22.46 -35.18)"/><path class="cls-2" d="M213.25,450.24c-1.29-.26-1,10.52-8.51,17.5-12.5,11.63-37.27,4-37.51,5.51-.08.51,2.57,1.66,15.34,4.55a18.44,18.44,0,0,0,8.23,2.8c10.78.88,18-8.8,18.69-9.75C215.87,462,214.57,450.5,213.25,450.24Z" transform="translate(-22.46 -35.18)"/><path class="cls-2" d="M652.89,545.32c-9.09,18.77-41,78.52-109.1,104.85,0,0-94.41,48.68-200.54-26.53-5.44-3.85,55.74,47.88,128.65,53.59,33.61,2.63,62.42-3,84.83-7.4a135.61,135.61,0,0,0,41.14-15.65,130.21,130.21,0,0,0,27.6-22.48,124,124,0,0,0,15.32-19.91s3.9-6.66,6.81-12.94C655.83,581,653.58,552.69,652.89,545.32Z" transform="translate(-22.46 -35.18)"/><path class="cls-2" d="M309.4,871.33a185.18,185.18,0,0,1,20.92-3.71c7.74-.92,18.33-1.69,39.49-.68,33.23,1.57,36.9,4.87,47,1.19,12.26-4.48,20-14.2,24.71-21.67a46,46,0,0,1-1.74,15.73A30.63,30.63,0,0,1,435.4,872c-2.45,3.39-6.86,7.39-16.09,10-16.6,4.62-30.14-.83-55.93-1.6-21.24-.63-35.36,3.29-50.72-6.75C311.25,872.74,310.14,871.9,309.4,871.33Z" transform="translate(-22.46 -35.18)"/><path class="cls-2" d="M514.3,869.68a71,71,0,0,1,9.1-4.29c17.94-7,34.1-4.78,38.65-4.32,13.13,1.35,34.61-.82,71.21-16.35a53.26,53.26,0,0,1-2.48,15.56,47.09,47.09,0,0,1-4.36,9.85c-1.7,2.83-3.09,5.17-5.13,6.76-4.68,3.68-11.29,2.34-16.5,1.42-13.71-2.42-28.3-3.75-38.47-3.65-6.69.06-12.66.76-21.25,1.76-13.82,1.6-22.21,3.49-27.49-1.44A12.6,12.6,0,0,1,514.3,869.68Z" transform="translate(-22.46 -35.18)"/><path class="cls-8" d="M411,428" transform="translate(-22.46 -35.18)"/><path class="cls-8" d="M34.68,252.73c-1.22.33-3.27,30.57,15.82,54.17,24.88,30.78,63.05,22.53,72.86,49.38,3.64,9.94,2.25,22-3.83,30.2C111,398,93.17,402.31,74.47,397c3.25,2.24,12.72,8.12,25.4,7.19,13.94-1,28.89-10,34-25.89,5.57-17.16-3.43-32.75-11.51-40.27-3.7-3.45-6.86-4.86-14-8.1-26.43-12-39.8-17.73-45-21.14C37.07,291.54,36.08,252.34,34.68,252.73Z" transform="translate(-22.46 -35.18)"/><path class="cls-8" d="M11.43,265.91" transform="translate(-22.46 -35.18)"/><path class="cls-3" d="M790.91,861.15" transform="translate(-22.46 -35.18)"/></svg>